<?xml version="1.0" encoding="UTF-8"?>
<svg xmlns="http://www.w3.org/2000/svg" xmlns:xlink="http://www.w3.org/1999/xlink" width="20pt" height="20pt" viewBox="0 0 20 20" version="1.1">
<g id="surface14518915">
<path style=" stroke:none;fill-rule:nonzero;fill:rgb(100%,100%,100%);fill-opacity:1;" d="M 17.917969 6.25 L 2.082031 6.25 C 1.625 6.25 1.25 5.875 1.25 5.417969 L 1.25 4.582031 C 1.25 4.125 1.625 3.75 2.082031 3.75 L 17.917969 3.75 C 18.375 3.75 18.75 4.125 18.75 4.582031 L 18.75 5.417969 C 18.75 5.875 18.375 6.25 17.917969 6.25 Z M 17.917969 6.25 "/>
<path style=" stroke:none;fill-rule:nonzero;fill:rgb(100%,100%,100%);fill-opacity:1;" d="M 17.917969 11.25 L 2.082031 11.25 C 1.625 11.25 1.25 10.875 1.25 10.417969 L 1.25 9.582031 C 1.25 9.125 1.625 8.75 2.082031 8.75 L 17.917969 8.75 C 18.375 8.75 18.75 9.125 18.75 9.582031 L 18.75 10.417969 C 18.75 10.875 18.375 11.25 17.917969 11.25 Z M 17.917969 11.25 "/>
<path style=" stroke:none;fill-rule:nonzero;fill:rgb(100%,100%,100%);fill-opacity:1;" d="M 17.917969 16.25 L 2.082031 16.25 C 1.625 16.25 1.25 15.875 1.25 15.417969 L 1.25 14.582031 C 1.25 14.125 1.625 13.75 2.082031 13.75 L 17.917969 13.75 C 18.375 13.75 18.75 14.125 18.75 14.582031 L 18.75 15.417969 C 18.75 15.875 18.375 16.25 17.917969 16.25 Z M 17.917969 16.25 "/>
</g>
</svg>
